<mxfile host="app.diagrams.net" modified="2024-01-19T22:41:14.632Z" agent="Mozilla/5.0 (Windows NT 10.0; Win64; x64) AppleWebKit/537.36 (KHTML, like Gecko) Chrome/119.0.0.0 Safari/537.36 OPR/105.0.0.0" etag="d5xcfdUn3-7cEUjYXuBz" version="22.1.21" type="github">
  <diagram name="Halaman-1" id="RlkjTWsV-O9fgGENXNkH">
    <mxGraphModel dx="1633" dy="1858" grid="1" gridSize="10" guides="1" tooltips="1" connect="1" arrows="1" fold="1" page="1" pageScale="1" pageWidth="850" pageHeight="1100" math="0" shadow="0">
      <root>
        <mxCell id="0" />
        <mxCell id="1" parent="0" />
        <mxCell id="8R3iqe2GSW00OIemZqo--1" value="" style="rounded=0;whiteSpace=wrap;html=1;" vertex="1" parent="1">
          <mxGeometry x="40" y="40" width="120" height="60" as="geometry" />
        </mxCell>
        <mxCell id="8R3iqe2GSW00OIemZqo--32" style="edgeStyle=orthogonalEdgeStyle;rounded=0;orthogonalLoop=1;jettySize=auto;html=1;entryX=0.5;entryY=0;entryDx=0;entryDy=0;" edge="1" parent="1" source="8R3iqe2GSW00OIemZqo--2" target="8R3iqe2GSW00OIemZqo--5">
          <mxGeometry relative="1" as="geometry" />
        </mxCell>
        <mxCell id="8R3iqe2GSW00OIemZqo--2" value="" style="rounded=0;whiteSpace=wrap;html=1;" vertex="1" parent="1">
          <mxGeometry x="320" y="120" width="120" height="60" as="geometry" />
        </mxCell>
        <mxCell id="8R3iqe2GSW00OIemZqo--39" style="edgeStyle=orthogonalEdgeStyle;rounded=0;orthogonalLoop=1;jettySize=auto;html=1;exitX=0.5;exitY=0;exitDx=0;exitDy=0;entryX=0.5;entryY=1;entryDx=0;entryDy=0;" edge="1" parent="1" source="8R3iqe2GSW00OIemZqo--3" target="8R3iqe2GSW00OIemZqo--1">
          <mxGeometry relative="1" as="geometry" />
        </mxCell>
        <mxCell id="8R3iqe2GSW00OIemZqo--3" value="" style="rounded=0;whiteSpace=wrap;html=1;" vertex="1" parent="1">
          <mxGeometry x="40" y="120" width="120" height="60" as="geometry" />
        </mxCell>
        <mxCell id="8R3iqe2GSW00OIemZqo--31" style="edgeStyle=orthogonalEdgeStyle;rounded=0;orthogonalLoop=1;jettySize=auto;html=1;entryX=0.5;entryY=0;entryDx=0;entryDy=0;" edge="1" parent="1" source="8R3iqe2GSW00OIemZqo--4" target="8R3iqe2GSW00OIemZqo--2">
          <mxGeometry relative="1" as="geometry" />
        </mxCell>
        <mxCell id="8R3iqe2GSW00OIemZqo--4" value="" style="rounded=0;whiteSpace=wrap;html=1;" vertex="1" parent="1">
          <mxGeometry x="320" y="40" width="120" height="60" as="geometry" />
        </mxCell>
        <mxCell id="8R3iqe2GSW00OIemZqo--33" style="edgeStyle=orthogonalEdgeStyle;rounded=0;orthogonalLoop=1;jettySize=auto;html=1;entryX=0.5;entryY=0;entryDx=0;entryDy=0;" edge="1" parent="1" source="8R3iqe2GSW00OIemZqo--5" target="8R3iqe2GSW00OIemZqo--8">
          <mxGeometry relative="1" as="geometry" />
        </mxCell>
        <mxCell id="8R3iqe2GSW00OIemZqo--5" value="" style="rounded=0;whiteSpace=wrap;html=1;" vertex="1" parent="1">
          <mxGeometry x="320" y="200" width="120" height="60" as="geometry" />
        </mxCell>
        <mxCell id="8R3iqe2GSW00OIemZqo--38" style="edgeStyle=orthogonalEdgeStyle;rounded=0;orthogonalLoop=1;jettySize=auto;html=1;exitX=0.5;exitY=0;exitDx=0;exitDy=0;entryX=0.5;entryY=1;entryDx=0;entryDy=0;" edge="1" parent="1" source="8R3iqe2GSW00OIemZqo--6" target="8R3iqe2GSW00OIemZqo--3">
          <mxGeometry relative="1" as="geometry" />
        </mxCell>
        <mxCell id="8R3iqe2GSW00OIemZqo--6" value="" style="rounded=0;whiteSpace=wrap;html=1;" vertex="1" parent="1">
          <mxGeometry x="40" y="200" width="120" height="60" as="geometry" />
        </mxCell>
        <mxCell id="8R3iqe2GSW00OIemZqo--7" value="" style="rounded=0;whiteSpace=wrap;html=1;" vertex="1" parent="1">
          <mxGeometry x="40" y="280" width="120" height="60" as="geometry" />
        </mxCell>
        <mxCell id="8R3iqe2GSW00OIemZqo--36" style="edgeStyle=orthogonalEdgeStyle;rounded=0;orthogonalLoop=1;jettySize=auto;html=1;" edge="1" parent="1" source="8R3iqe2GSW00OIemZqo--8">
          <mxGeometry relative="1" as="geometry">
            <mxPoint x="240" y="350" as="targetPoint" />
          </mxGeometry>
        </mxCell>
        <mxCell id="8R3iqe2GSW00OIemZqo--8" value="" style="rounded=0;whiteSpace=wrap;html=1;" vertex="1" parent="1">
          <mxGeometry x="320" y="280" width="120" height="60" as="geometry" />
        </mxCell>
        <mxCell id="8R3iqe2GSW00OIemZqo--9" value="" style="rounded=0;whiteSpace=wrap;html=1;" vertex="1" parent="1">
          <mxGeometry x="180" y="360" width="120" height="60" as="geometry" />
        </mxCell>
        <mxCell id="8R3iqe2GSW00OIemZqo--26" value="" style="edgeStyle=orthogonalEdgeStyle;rounded=0;orthogonalLoop=1;jettySize=auto;html=1;" edge="1" parent="1" source="8R3iqe2GSW00OIemZqo--10" target="8R3iqe2GSW00OIemZqo--12">
          <mxGeometry relative="1" as="geometry" />
        </mxCell>
        <mxCell id="8R3iqe2GSW00OIemZqo--10" value="Actor" style="shape=umlActor;verticalLabelPosition=bottom;verticalAlign=top;html=1;outlineConnect=0;" vertex="1" parent="1">
          <mxGeometry x="225" y="20" width="30" height="60" as="geometry" />
        </mxCell>
        <mxCell id="8R3iqe2GSW00OIemZqo--24" value="" style="edgeStyle=orthogonalEdgeStyle;rounded=0;orthogonalLoop=1;jettySize=auto;html=1;" edge="1" parent="1" source="8R3iqe2GSW00OIemZqo--11" target="8R3iqe2GSW00OIemZqo--10">
          <mxGeometry relative="1" as="geometry" />
        </mxCell>
        <mxCell id="8R3iqe2GSW00OIemZqo--11" value="File Bentuk awal" style="text;html=1;strokeColor=none;fillColor=none;align=center;verticalAlign=middle;whiteSpace=wrap;rounded=0;" vertex="1" parent="1">
          <mxGeometry x="70" y="55" width="70" height="30" as="geometry" />
        </mxCell>
        <mxCell id="8R3iqe2GSW00OIemZqo--12" value="Tampil menu awal file" style="text;html=1;strokeColor=none;fillColor=none;align=center;verticalAlign=middle;whiteSpace=wrap;rounded=0;" vertex="1" parent="1">
          <mxGeometry x="345" y="55" width="85" height="30" as="geometry" />
        </mxCell>
        <mxCell id="8R3iqe2GSW00OIemZqo--13" value="klik dekripsi dan proses dekripsi file" style="text;html=1;strokeColor=none;fillColor=none;align=center;verticalAlign=middle;whiteSpace=wrap;rounded=0;" vertex="1" parent="1">
          <mxGeometry x="60" y="135" width="70" height="30" as="geometry" />
        </mxCell>
        <mxCell id="8R3iqe2GSW00OIemZqo--14" value="input pass/key untuk dekripsi file" style="text;html=1;strokeColor=none;fillColor=none;align=center;verticalAlign=middle;whiteSpace=wrap;rounded=0;" vertex="1" parent="1">
          <mxGeometry x="50" y="215" width="90" height="35" as="geometry" />
        </mxCell>
        <mxCell id="8R3iqe2GSW00OIemZqo--37" style="edgeStyle=orthogonalEdgeStyle;rounded=0;orthogonalLoop=1;jettySize=auto;html=1;entryX=0.5;entryY=1;entryDx=0;entryDy=0;" edge="1" parent="1" source="8R3iqe2GSW00OIemZqo--15" target="8R3iqe2GSW00OIemZqo--6">
          <mxGeometry relative="1" as="geometry" />
        </mxCell>
        <mxCell id="8R3iqe2GSW00OIemZqo--15" value="Tampilan awal lalu klik list dan pilih fule yg di dekskripsi" style="text;html=1;strokeColor=none;fillColor=none;align=center;verticalAlign=middle;whiteSpace=wrap;rounded=0;" vertex="1" parent="1">
          <mxGeometry x="50" y="295" width="90" height="30" as="geometry" />
        </mxCell>
        <mxCell id="8R3iqe2GSW00OIemZqo--16" value="Masuk ke tampilan enkripsi file" style="text;html=1;strokeColor=none;fillColor=none;align=center;verticalAlign=middle;whiteSpace=wrap;rounded=0;" vertex="1" parent="1">
          <mxGeometry x="330" y="135" width="100" height="30" as="geometry" />
        </mxCell>
        <mxCell id="8R3iqe2GSW00OIemZqo--17" value="klik tombol enkripsi file untuk mengunci" style="text;html=1;strokeColor=none;fillColor=none;align=center;verticalAlign=middle;whiteSpace=wrap;rounded=0;" vertex="1" parent="1">
          <mxGeometry x="330" y="295" width="100" height="30" as="geometry" />
        </mxCell>
        <mxCell id="8R3iqe2GSW00OIemZqo--18" value="Input file dan password" style="text;html=1;strokeColor=none;fillColor=none;align=center;verticalAlign=middle;whiteSpace=wrap;rounded=0;" vertex="1" parent="1">
          <mxGeometry x="330" y="215" width="90" height="30" as="geometry" />
        </mxCell>
        <mxCell id="8R3iqe2GSW00OIemZqo--35" style="edgeStyle=orthogonalEdgeStyle;rounded=0;orthogonalLoop=1;jettySize=auto;html=1;" edge="1" parent="1" source="8R3iqe2GSW00OIemZqo--19">
          <mxGeometry relative="1" as="geometry">
            <mxPoint x="100" y="350" as="targetPoint" />
          </mxGeometry>
        </mxCell>
        <mxCell id="8R3iqe2GSW00OIemZqo--19" value="melakukan proses enkripsi file dan save" style="text;html=1;strokeColor=none;fillColor=none;align=center;verticalAlign=middle;whiteSpace=wrap;rounded=0;" vertex="1" parent="1">
          <mxGeometry x="190" y="375" width="100" height="30" as="geometry" />
        </mxCell>
        <mxCell id="8R3iqe2GSW00OIemZqo--40" value="SKEMA PENERAPAN" style="text;strokeColor=none;fillColor=none;html=1;fontSize=24;fontStyle=1;verticalAlign=middle;align=center;" vertex="1" parent="1">
          <mxGeometry x="200" y="-20" width="100" height="40" as="geometry" />
        </mxCell>
        <mxCell id="8R3iqe2GSW00OIemZqo--42" value="FLOWCHART ENKRIPSI FILE" style="text;strokeColor=none;fillColor=none;html=1;fontSize=24;fontStyle=1;verticalAlign=middle;align=center;" vertex="1" parent="1">
          <mxGeometry x="1040" y="100" width="100" height="40" as="geometry" />
        </mxCell>
        <mxCell id="8R3iqe2GSW00OIemZqo--63" style="edgeStyle=orthogonalEdgeStyle;rounded=0;orthogonalLoop=1;jettySize=auto;html=1;" edge="1" parent="1" source="8R3iqe2GSW00OIemZqo--43">
          <mxGeometry relative="1" as="geometry">
            <mxPoint x="820" y="240" as="targetPoint" />
          </mxGeometry>
        </mxCell>
        <mxCell id="8R3iqe2GSW00OIemZqo--43" value="" style="shape=parallelogram;perimeter=parallelogramPerimeter;whiteSpace=wrap;html=1;fixedSize=1;" vertex="1" parent="1">
          <mxGeometry x="760" y="155" width="120" height="60" as="geometry" />
        </mxCell>
        <mxCell id="8R3iqe2GSW00OIemZqo--61" style="edgeStyle=orthogonalEdgeStyle;rounded=0;orthogonalLoop=1;jettySize=auto;html=1;" edge="1" parent="1" source="8R3iqe2GSW00OIemZqo--44">
          <mxGeometry relative="1" as="geometry">
            <mxPoint x="820" y="150" as="targetPoint" />
          </mxGeometry>
        </mxCell>
        <mxCell id="8R3iqe2GSW00OIemZqo--44" value="" style="shape=hexagon;perimeter=hexagonPerimeter2;whiteSpace=wrap;html=1;fixedSize=1;" vertex="1" parent="1">
          <mxGeometry x="760" y="40" width="120" height="80" as="geometry" />
        </mxCell>
        <mxCell id="8R3iqe2GSW00OIemZqo--84" style="edgeStyle=orthogonalEdgeStyle;rounded=0;orthogonalLoop=1;jettySize=auto;html=1;entryX=0.5;entryY=0;entryDx=0;entryDy=0;" edge="1" parent="1" source="8R3iqe2GSW00OIemZqo--45" target="8R3iqe2GSW00OIemZqo--80">
          <mxGeometry relative="1" as="geometry" />
        </mxCell>
        <mxCell id="8R3iqe2GSW00OIemZqo--45" value="" style="rhombus;whiteSpace=wrap;html=1;" vertex="1" parent="1">
          <mxGeometry x="960" y="240" width="80" height="80" as="geometry" />
        </mxCell>
        <mxCell id="8R3iqe2GSW00OIemZqo--47" value="" style="shape=parallelogram;perimeter=parallelogramPerimeter;whiteSpace=wrap;html=1;fixedSize=1;" vertex="1" parent="1">
          <mxGeometry x="760" y="250" width="120" height="60" as="geometry" />
        </mxCell>
        <mxCell id="8R3iqe2GSW00OIemZqo--48" value="" style="rhombus;whiteSpace=wrap;html=1;" vertex="1" parent="1">
          <mxGeometry x="1132.5" y="340" width="80" height="80" as="geometry" />
        </mxCell>
        <mxCell id="8R3iqe2GSW00OIemZqo--67" style="edgeStyle=orthogonalEdgeStyle;rounded=0;orthogonalLoop=1;jettySize=auto;html=1;" edge="1" parent="1" source="8R3iqe2GSW00OIemZqo--49">
          <mxGeometry relative="1" as="geometry">
            <mxPoint x="1170" y="330" as="targetPoint" />
          </mxGeometry>
        </mxCell>
        <mxCell id="8R3iqe2GSW00OIemZqo--49" value="" style="rounded=0;whiteSpace=wrap;html=1;" vertex="1" parent="1">
          <mxGeometry x="1110" y="245" width="120" height="60" as="geometry" />
        </mxCell>
        <mxCell id="8R3iqe2GSW00OIemZqo--50" value="" style="shape=parallelogram;perimeter=parallelogramPerimeter;whiteSpace=wrap;html=1;fixedSize=1;" vertex="1" parent="1">
          <mxGeometry x="930" y="420" width="120" height="60" as="geometry" />
        </mxCell>
        <mxCell id="8R3iqe2GSW00OIemZqo--81" style="edgeStyle=orthogonalEdgeStyle;rounded=0;orthogonalLoop=1;jettySize=auto;html=1;entryX=0.5;entryY=0;entryDx=0;entryDy=0;" edge="1" parent="1" source="8R3iqe2GSW00OIemZqo--51" target="8R3iqe2GSW00OIemZqo--79">
          <mxGeometry relative="1" as="geometry" />
        </mxCell>
        <mxCell id="8R3iqe2GSW00OIemZqo--51" value="" style="shape=parallelogram;perimeter=parallelogramPerimeter;whiteSpace=wrap;html=1;fixedSize=1;" vertex="1" parent="1">
          <mxGeometry x="1230" y="430" width="120" height="60" as="geometry" />
        </mxCell>
        <mxCell id="8R3iqe2GSW00OIemZqo--52" value="Halaman enkripsi file" style="text;html=1;strokeColor=none;fillColor=none;align=center;verticalAlign=middle;whiteSpace=wrap;rounded=0;" vertex="1" parent="1">
          <mxGeometry x="777.5" y="65" width="85" height="30" as="geometry" />
        </mxCell>
        <mxCell id="8R3iqe2GSW00OIemZqo--53" value="input file" style="text;html=1;strokeColor=none;fillColor=none;align=center;verticalAlign=middle;whiteSpace=wrap;rounded=0;" vertex="1" parent="1">
          <mxGeometry x="777.5" y="170" width="85" height="30" as="geometry" />
        </mxCell>
        <mxCell id="8R3iqe2GSW00OIemZqo--64" style="edgeStyle=orthogonalEdgeStyle;rounded=0;orthogonalLoop=1;jettySize=auto;html=1;" edge="1" parent="1" source="8R3iqe2GSW00OIemZqo--54">
          <mxGeometry relative="1" as="geometry">
            <mxPoint x="950" y="280" as="targetPoint" />
          </mxGeometry>
        </mxCell>
        <mxCell id="8R3iqe2GSW00OIemZqo--54" value="pilih tombol" style="text;html=1;strokeColor=none;fillColor=none;align=center;verticalAlign=middle;whiteSpace=wrap;rounded=0;" vertex="1" parent="1">
          <mxGeometry x="777.5" y="265" width="85" height="30" as="geometry" />
        </mxCell>
        <mxCell id="8R3iqe2GSW00OIemZqo--66" style="edgeStyle=orthogonalEdgeStyle;rounded=0;orthogonalLoop=1;jettySize=auto;html=1;" edge="1" parent="1" source="8R3iqe2GSW00OIemZqo--55">
          <mxGeometry relative="1" as="geometry">
            <mxPoint x="1100" y="290" as="targetPoint" />
          </mxGeometry>
        </mxCell>
        <mxCell id="8R3iqe2GSW00OIemZqo--55" value="pilih enkripsi file" style="text;html=1;strokeColor=none;fillColor=none;align=center;verticalAlign=middle;whiteSpace=wrap;rounded=0;" vertex="1" parent="1">
          <mxGeometry x="963.75" y="275" width="72.5" height="30" as="geometry" />
        </mxCell>
        <mxCell id="8R3iqe2GSW00OIemZqo--56" value="proses enkripsi file" style="text;html=1;strokeColor=none;fillColor=none;align=center;verticalAlign=middle;whiteSpace=wrap;rounded=0;" vertex="1" parent="1">
          <mxGeometry x="1127.5" y="260" width="85" height="30" as="geometry" />
        </mxCell>
        <mxCell id="8R3iqe2GSW00OIemZqo--57" value="pesan berhasil enkripsi" style="text;html=1;strokeColor=none;fillColor=none;align=center;verticalAlign=middle;whiteSpace=wrap;rounded=0;" vertex="1" parent="1">
          <mxGeometry x="1250" y="445" width="85" height="30" as="geometry" />
        </mxCell>
        <mxCell id="8R3iqe2GSW00OIemZqo--68" style="edgeStyle=orthogonalEdgeStyle;rounded=0;orthogonalLoop=1;jettySize=auto;html=1;" edge="1" parent="1" source="8R3iqe2GSW00OIemZqo--59">
          <mxGeometry relative="1" as="geometry">
            <mxPoint x="1310" y="410" as="targetPoint" />
          </mxGeometry>
        </mxCell>
        <mxCell id="8R3iqe2GSW00OIemZqo--69" style="edgeStyle=orthogonalEdgeStyle;rounded=0;orthogonalLoop=1;jettySize=auto;html=1;" edge="1" parent="1" source="8R3iqe2GSW00OIemZqo--59">
          <mxGeometry relative="1" as="geometry">
            <mxPoint x="1010" y="410" as="targetPoint" />
          </mxGeometry>
        </mxCell>
        <mxCell id="8R3iqe2GSW00OIemZqo--59" value="file terenkripsi" style="text;html=1;strokeColor=none;fillColor=none;align=center;verticalAlign=middle;whiteSpace=wrap;rounded=0;fontStyle=1" vertex="1" parent="1">
          <mxGeometry x="1137.5" y="360" width="75" height="30" as="geometry" />
        </mxCell>
        <mxCell id="8R3iqe2GSW00OIemZqo--82" style="edgeStyle=orthogonalEdgeStyle;rounded=0;orthogonalLoop=1;jettySize=auto;html=1;entryX=0.5;entryY=0;entryDx=0;entryDy=0;" edge="1" parent="1" source="8R3iqe2GSW00OIemZqo--60" target="8R3iqe2GSW00OIemZqo--76">
          <mxGeometry relative="1" as="geometry" />
        </mxCell>
        <mxCell id="8R3iqe2GSW00OIemZqo--60" value="pesan gagal enkripsi" style="text;html=1;strokeColor=none;fillColor=none;align=center;verticalAlign=middle;whiteSpace=wrap;rounded=0;" vertex="1" parent="1">
          <mxGeometry x="947.5" y="435" width="85" height="30" as="geometry" />
        </mxCell>
        <mxCell id="8R3iqe2GSW00OIemZqo--70" value="true" style="text;html=1;strokeColor=none;fillColor=none;align=center;verticalAlign=middle;whiteSpace=wrap;rounded=0;" vertex="1" parent="1">
          <mxGeometry x="1220" y="340" width="85" height="30" as="geometry" />
        </mxCell>
        <mxCell id="8R3iqe2GSW00OIemZqo--71" value="false" style="text;html=1;strokeColor=none;fillColor=none;align=center;verticalAlign=middle;whiteSpace=wrap;rounded=0;" vertex="1" parent="1">
          <mxGeometry x="1025" y="345" width="85" height="30" as="geometry" />
        </mxCell>
        <mxCell id="8R3iqe2GSW00OIemZqo--72" value="true" style="text;html=1;strokeColor=none;fillColor=none;align=center;verticalAlign=middle;whiteSpace=wrap;rounded=0;" vertex="1" parent="1">
          <mxGeometry x="1036.25" y="260" width="85" height="30" as="geometry" />
        </mxCell>
        <mxCell id="8R3iqe2GSW00OIemZqo--73" value="" style="ellipse;whiteSpace=wrap;html=1;" vertex="1" parent="1">
          <mxGeometry x="963.75" y="500" width="30" height="30" as="geometry" />
        </mxCell>
        <mxCell id="8R3iqe2GSW00OIemZqo--74" value="" style="ellipse;whiteSpace=wrap;html=1;" vertex="1" parent="1">
          <mxGeometry x="1277.5" y="510" width="30" height="30" as="geometry" />
        </mxCell>
        <mxCell id="8R3iqe2GSW00OIemZqo--75" value="" style="ellipse;whiteSpace=wrap;html=1;" vertex="1" parent="1">
          <mxGeometry x="985" y="340" width="30" height="30" as="geometry" />
        </mxCell>
        <mxCell id="8R3iqe2GSW00OIemZqo--76" value="1" style="text;html=1;strokeColor=none;fillColor=none;align=center;verticalAlign=middle;whiteSpace=wrap;rounded=0;" vertex="1" parent="1">
          <mxGeometry x="936.25" y="500" width="85" height="30" as="geometry" />
        </mxCell>
        <mxCell id="8R3iqe2GSW00OIemZqo--79" value="1" style="text;html=1;strokeColor=none;fillColor=none;align=center;verticalAlign=middle;whiteSpace=wrap;rounded=0;" vertex="1" parent="1">
          <mxGeometry x="1247.5" y="510" width="85" height="30" as="geometry" />
        </mxCell>
        <mxCell id="8R3iqe2GSW00OIemZqo--80" value="1" style="text;html=1;strokeColor=none;fillColor=none;align=center;verticalAlign=middle;whiteSpace=wrap;rounded=0;" vertex="1" parent="1">
          <mxGeometry x="955" y="340" width="85" height="30" as="geometry" />
        </mxCell>
        <mxCell id="8R3iqe2GSW00OIemZqo--85" value="false" style="text;html=1;strokeColor=none;fillColor=none;align=center;verticalAlign=middle;whiteSpace=wrap;rounded=0;" vertex="1" parent="1">
          <mxGeometry x="985" y="315" width="85" height="30" as="geometry" />
        </mxCell>
        <mxCell id="8R3iqe2GSW00OIemZqo--86" value="FLOWCHART DEKRIPSI FILE" style="text;strokeColor=none;fillColor=none;html=1;fontSize=24;fontStyle=1;verticalAlign=middle;align=center;" vertex="1" parent="1">
          <mxGeometry x="370" y="650" width="100" height="40" as="geometry" />
        </mxCell>
        <mxCell id="8R3iqe2GSW00OIemZqo--87" style="edgeStyle=orthogonalEdgeStyle;rounded=0;orthogonalLoop=1;jettySize=auto;html=1;" edge="1" parent="1">
          <mxGeometry relative="1" as="geometry">
            <mxPoint x="152.5" y="840" as="targetPoint" />
            <mxPoint x="152.5" y="815" as="sourcePoint" />
          </mxGeometry>
        </mxCell>
        <mxCell id="8R3iqe2GSW00OIemZqo--89" style="edgeStyle=orthogonalEdgeStyle;rounded=0;orthogonalLoop=1;jettySize=auto;html=1;" edge="1" parent="1" source="8R3iqe2GSW00OIemZqo--90">
          <mxGeometry relative="1" as="geometry">
            <mxPoint x="152.5" y="750" as="targetPoint" />
          </mxGeometry>
        </mxCell>
        <mxCell id="8R3iqe2GSW00OIemZqo--90" value="" style="shape=hexagon;perimeter=hexagonPerimeter2;whiteSpace=wrap;html=1;fixedSize=1;" vertex="1" parent="1">
          <mxGeometry x="92.5" y="640" width="120" height="80" as="geometry" />
        </mxCell>
        <mxCell id="8R3iqe2GSW00OIemZqo--168" style="edgeStyle=orthogonalEdgeStyle;rounded=0;orthogonalLoop=1;jettySize=auto;html=1;" edge="1" parent="1" source="8R3iqe2GSW00OIemZqo--92">
          <mxGeometry relative="1" as="geometry">
            <mxPoint x="250" y="920" as="targetPoint" />
            <Array as="points">
              <mxPoint x="150" y="920" />
              <mxPoint x="161" y="920" />
            </Array>
          </mxGeometry>
        </mxCell>
        <mxCell id="8R3iqe2GSW00OIemZqo--92" value="" style="rhombus;whiteSpace=wrap;html=1;" vertex="1" parent="1">
          <mxGeometry x="110" y="760" width="80" height="80" as="geometry" />
        </mxCell>
        <mxCell id="8R3iqe2GSW00OIemZqo--171" style="edgeStyle=orthogonalEdgeStyle;rounded=0;orthogonalLoop=1;jettySize=auto;html=1;" edge="1" parent="1" source="8R3iqe2GSW00OIemZqo--94">
          <mxGeometry relative="1" as="geometry">
            <mxPoint x="390" y="915" as="targetPoint" />
          </mxGeometry>
        </mxCell>
        <mxCell id="8R3iqe2GSW00OIemZqo--177" style="edgeStyle=orthogonalEdgeStyle;rounded=0;orthogonalLoop=1;jettySize=auto;html=1;entryX=0.5;entryY=0;entryDx=0;entryDy=0;" edge="1" parent="1" source="8R3iqe2GSW00OIemZqo--94" target="8R3iqe2GSW00OIemZqo--175">
          <mxGeometry relative="1" as="geometry" />
        </mxCell>
        <mxCell id="8R3iqe2GSW00OIemZqo--94" value="" style="rhombus;whiteSpace=wrap;html=1;" vertex="1" parent="1">
          <mxGeometry x="268.75" y="875" width="80" height="80" as="geometry" />
        </mxCell>
        <mxCell id="8R3iqe2GSW00OIemZqo--97" value="" style="shape=parallelogram;perimeter=parallelogramPerimeter;whiteSpace=wrap;html=1;fixedSize=1;" vertex="1" parent="1">
          <mxGeometry x="400" y="885" width="120" height="60" as="geometry" />
        </mxCell>
        <mxCell id="8R3iqe2GSW00OIemZqo--99" value="" style="shape=parallelogram;perimeter=parallelogramPerimeter;whiteSpace=wrap;html=1;fixedSize=1;" vertex="1" parent="1">
          <mxGeometry x="510" y="1140" width="120" height="60" as="geometry" />
        </mxCell>
        <mxCell id="8R3iqe2GSW00OIemZqo--100" value="Halaman dekripsi file" style="text;html=1;strokeColor=none;fillColor=none;align=center;verticalAlign=middle;whiteSpace=wrap;rounded=0;" vertex="1" parent="1">
          <mxGeometry x="110" y="665" width="85" height="30" as="geometry" />
        </mxCell>
        <mxCell id="8R3iqe2GSW00OIemZqo--161" style="edgeStyle=orthogonalEdgeStyle;rounded=0;orthogonalLoop=1;jettySize=auto;html=1;" edge="1" parent="1" source="8R3iqe2GSW00OIemZqo--101">
          <mxGeometry relative="1" as="geometry">
            <mxPoint x="250" y="800" as="targetPoint" />
          </mxGeometry>
        </mxCell>
        <mxCell id="8R3iqe2GSW00OIemZqo--101" value="pilih file" style="text;html=1;strokeColor=none;fillColor=none;align=center;verticalAlign=middle;whiteSpace=wrap;rounded=0;" vertex="1" parent="1">
          <mxGeometry x="110" y="785" width="85" height="30" as="geometry" />
        </mxCell>
        <mxCell id="8R3iqe2GSW00OIemZqo--106" value="proses enkripsi file" style="text;html=1;strokeColor=none;fillColor=none;align=center;verticalAlign=middle;whiteSpace=wrap;rounded=0;" vertex="1" parent="1">
          <mxGeometry x="572.5" y="895" width="85" height="30" as="geometry" />
        </mxCell>
        <mxCell id="8R3iqe2GSW00OIemZqo--110" value="pilih dekripsi file" style="text;html=1;strokeColor=none;fillColor=none;align=center;verticalAlign=middle;whiteSpace=wrap;rounded=0;fontStyle=1" vertex="1" parent="1">
          <mxGeometry x="267.5" y="890" width="75" height="30" as="geometry" />
        </mxCell>
        <mxCell id="8R3iqe2GSW00OIemZqo--180" style="edgeStyle=orthogonalEdgeStyle;rounded=0;orthogonalLoop=1;jettySize=auto;html=1;" edge="1" parent="1" source="8R3iqe2GSW00OIemZqo--112">
          <mxGeometry relative="1" as="geometry">
            <mxPoint x="550" y="915" as="targetPoint" />
          </mxGeometry>
        </mxCell>
        <mxCell id="8R3iqe2GSW00OIemZqo--112" value="input password file" style="text;html=1;strokeColor=none;fillColor=none;align=center;verticalAlign=middle;whiteSpace=wrap;rounded=0;" vertex="1" parent="1">
          <mxGeometry x="420" y="900" width="85" height="30" as="geometry" />
        </mxCell>
        <mxCell id="8R3iqe2GSW00OIemZqo--113" value="true" style="text;html=1;strokeColor=none;fillColor=none;align=center;verticalAlign=middle;whiteSpace=wrap;rounded=0;" vertex="1" parent="1">
          <mxGeometry x="335" y="875" width="85" height="30" as="geometry" />
        </mxCell>
        <mxCell id="8R3iqe2GSW00OIemZqo--114" value="false" style="text;html=1;strokeColor=none;fillColor=none;align=center;verticalAlign=middle;whiteSpace=wrap;rounded=0;" vertex="1" parent="1">
          <mxGeometry x="182.5" y="890" width="85" height="30" as="geometry" />
        </mxCell>
        <mxCell id="8R3iqe2GSW00OIemZqo--115" value="true" style="text;html=1;strokeColor=none;fillColor=none;align=center;verticalAlign=middle;whiteSpace=wrap;rounded=0;" vertex="1" parent="1">
          <mxGeometry x="183.75" y="770" width="85" height="30" as="geometry" />
        </mxCell>
        <mxCell id="8R3iqe2GSW00OIemZqo--117" value="" style="ellipse;whiteSpace=wrap;html=1;" vertex="1" parent="1">
          <mxGeometry x="805" y="900" width="30" height="30" as="geometry" />
        </mxCell>
        <mxCell id="8R3iqe2GSW00OIemZqo--118" value="" style="ellipse;whiteSpace=wrap;html=1;" vertex="1" parent="1">
          <mxGeometry x="287.5" y="710" width="30" height="30" as="geometry" />
        </mxCell>
        <mxCell id="8R3iqe2GSW00OIemZqo--120" value="1" style="text;html=1;strokeColor=none;fillColor=none;align=center;verticalAlign=middle;whiteSpace=wrap;rounded=0;" vertex="1" parent="1">
          <mxGeometry x="777.5" y="900" width="85" height="30" as="geometry" />
        </mxCell>
        <mxCell id="8R3iqe2GSW00OIemZqo--121" value="1" style="text;html=1;strokeColor=none;fillColor=none;align=center;verticalAlign=middle;whiteSpace=wrap;rounded=0;" vertex="1" parent="1">
          <mxGeometry x="260" y="710" width="85" height="30" as="geometry" />
        </mxCell>
        <mxCell id="8R3iqe2GSW00OIemZqo--122" value="false" style="text;html=1;strokeColor=none;fillColor=none;align=center;verticalAlign=middle;whiteSpace=wrap;rounded=0;" vertex="1" parent="1">
          <mxGeometry x="296.25" y="730" width="85" height="30" as="geometry" />
        </mxCell>
        <mxCell id="8R3iqe2GSW00OIemZqo--163" style="edgeStyle=orthogonalEdgeStyle;rounded=0;orthogonalLoop=1;jettySize=auto;html=1;exitX=0.5;exitY=0;exitDx=0;exitDy=0;entryX=0.5;entryY=1;entryDx=0;entryDy=0;" edge="1" parent="1" source="8R3iqe2GSW00OIemZqo--160" target="8R3iqe2GSW00OIemZqo--121">
          <mxGeometry relative="1" as="geometry" />
        </mxCell>
        <mxCell id="8R3iqe2GSW00OIemZqo--160" value="" style="rhombus;whiteSpace=wrap;html=1;" vertex="1" parent="1">
          <mxGeometry x="265" y="760" width="80" height="80" as="geometry" />
        </mxCell>
        <mxCell id="8R3iqe2GSW00OIemZqo--166" style="edgeStyle=orthogonalEdgeStyle;rounded=0;orthogonalLoop=1;jettySize=auto;html=1;exitX=1;exitY=0.5;exitDx=0;exitDy=0;" edge="1" parent="1" source="8R3iqe2GSW00OIemZqo--162">
          <mxGeometry relative="1" as="geometry">
            <mxPoint x="380" y="800" as="targetPoint" />
          </mxGeometry>
        </mxCell>
        <mxCell id="8R3iqe2GSW00OIemZqo--162" value="pilih enkripsi file" style="text;html=1;strokeColor=none;fillColor=none;align=center;verticalAlign=middle;whiteSpace=wrap;rounded=0;" vertex="1" parent="1">
          <mxGeometry x="265" y="785" width="75" height="30" as="geometry" />
        </mxCell>
        <mxCell id="8R3iqe2GSW00OIemZqo--164" value="" style="shape=hexagon;perimeter=hexagonPerimeter2;whiteSpace=wrap;html=1;fixedSize=1;" vertex="1" parent="1">
          <mxGeometry x="390" y="760" width="120" height="80" as="geometry" />
        </mxCell>
        <mxCell id="8R3iqe2GSW00OIemZqo--165" value="Halaman enkripsi file" style="text;html=1;strokeColor=none;fillColor=none;align=center;verticalAlign=middle;whiteSpace=wrap;rounded=0;" vertex="1" parent="1">
          <mxGeometry x="410" y="785" width="85" height="30" as="geometry" />
        </mxCell>
        <mxCell id="8R3iqe2GSW00OIemZqo--167" value="true" style="text;html=1;strokeColor=none;fillColor=none;align=center;verticalAlign=middle;whiteSpace=wrap;rounded=0;" vertex="1" parent="1">
          <mxGeometry x="325" y="770" width="85" height="30" as="geometry" />
        </mxCell>
        <mxCell id="8R3iqe2GSW00OIemZqo--172" value="" style="shape=parallelogram;perimeter=parallelogramPerimeter;whiteSpace=wrap;html=1;fixedSize=1;" vertex="1" parent="1">
          <mxGeometry x="555" y="880" width="120" height="60" as="geometry" />
        </mxCell>
        <mxCell id="8R3iqe2GSW00OIemZqo--175" value="" style="ellipse;whiteSpace=wrap;html=1;" vertex="1" parent="1">
          <mxGeometry x="300" y="980" width="30" height="30" as="geometry" />
        </mxCell>
        <mxCell id="8R3iqe2GSW00OIemZqo--176" value="false" style="text;html=1;strokeColor=none;fillColor=none;align=center;verticalAlign=middle;whiteSpace=wrap;rounded=0;" vertex="1" parent="1">
          <mxGeometry x="305" y="960" width="85" height="30" as="geometry" />
        </mxCell>
        <mxCell id="8R3iqe2GSW00OIemZqo--178" value="1" style="text;html=1;strokeColor=none;fillColor=none;align=center;verticalAlign=middle;whiteSpace=wrap;rounded=0;" vertex="1" parent="1">
          <mxGeometry x="272.5" y="980" width="85" height="30" as="geometry" />
        </mxCell>
        <mxCell id="8R3iqe2GSW00OIemZqo--182" style="edgeStyle=orthogonalEdgeStyle;rounded=0;orthogonalLoop=1;jettySize=auto;html=1;" edge="1" parent="1" source="8R3iqe2GSW00OIemZqo--179">
          <mxGeometry relative="1" as="geometry">
            <mxPoint x="690" y="910" as="targetPoint" />
          </mxGeometry>
        </mxCell>
        <mxCell id="8R3iqe2GSW00OIemZqo--179" value="pilih tombol" style="text;html=1;strokeColor=none;fillColor=none;align=center;verticalAlign=middle;whiteSpace=wrap;rounded=0;" vertex="1" parent="1">
          <mxGeometry x="572.5" y="895" width="85" height="30" as="geometry" />
        </mxCell>
        <mxCell id="8R3iqe2GSW00OIemZqo--190" style="edgeStyle=orthogonalEdgeStyle;rounded=0;orthogonalLoop=1;jettySize=auto;html=1;exitX=0.5;exitY=1;exitDx=0;exitDy=0;" edge="1" parent="1" source="8R3iqe2GSW00OIemZqo--181">
          <mxGeometry relative="1" as="geometry">
            <mxPoint x="738" y="980" as="targetPoint" />
          </mxGeometry>
        </mxCell>
        <mxCell id="8R3iqe2GSW00OIemZqo--181" value="" style="rhombus;whiteSpace=wrap;html=1;" vertex="1" parent="1">
          <mxGeometry x="697.5" y="870" width="80" height="80" as="geometry" />
        </mxCell>
        <mxCell id="8R3iqe2GSW00OIemZqo--184" style="edgeStyle=orthogonalEdgeStyle;rounded=0;orthogonalLoop=1;jettySize=auto;html=1;exitX=1;exitY=0.5;exitDx=0;exitDy=0;" edge="1" parent="1" source="8R3iqe2GSW00OIemZqo--183" target="8R3iqe2GSW00OIemZqo--120">
          <mxGeometry relative="1" as="geometry" />
        </mxCell>
        <mxCell id="8R3iqe2GSW00OIemZqo--183" value="pilih dekripsi file" style="text;html=1;strokeColor=none;fillColor=none;align=center;verticalAlign=middle;whiteSpace=wrap;rounded=0;" vertex="1" parent="1">
          <mxGeometry x="697.5" y="900" width="85" height="30" as="geometry" />
        </mxCell>
        <mxCell id="8R3iqe2GSW00OIemZqo--185" value="false" style="text;html=1;strokeColor=none;fillColor=none;align=center;verticalAlign=middle;whiteSpace=wrap;rounded=0;" vertex="1" parent="1">
          <mxGeometry x="750" y="870" width="85" height="30" as="geometry" />
        </mxCell>
        <mxCell id="8R3iqe2GSW00OIemZqo--191" style="edgeStyle=orthogonalEdgeStyle;rounded=0;orthogonalLoop=1;jettySize=auto;html=1;" edge="1" parent="1" source="8R3iqe2GSW00OIemZqo--186">
          <mxGeometry relative="1" as="geometry">
            <mxPoint x="750" y="1080" as="targetPoint" />
          </mxGeometry>
        </mxCell>
        <mxCell id="8R3iqe2GSW00OIemZqo--186" value="" style="rounded=0;whiteSpace=wrap;html=1;" vertex="1" parent="1">
          <mxGeometry x="690" y="990" width="120" height="60" as="geometry" />
        </mxCell>
        <mxCell id="8R3iqe2GSW00OIemZqo--187" value="" style="rounded=0;whiteSpace=wrap;html=1;" vertex="1" parent="1">
          <mxGeometry x="690" y="1090" width="120" height="60" as="geometry" />
        </mxCell>
        <mxCell id="8R3iqe2GSW00OIemZqo--188" value="proses dekripsi file" style="text;html=1;strokeColor=none;fillColor=none;align=center;verticalAlign=middle;whiteSpace=wrap;rounded=0;" vertex="1" parent="1">
          <mxGeometry x="707.5" y="1005" width="85" height="30" as="geometry" />
        </mxCell>
        <mxCell id="8R3iqe2GSW00OIemZqo--194" style="edgeStyle=orthogonalEdgeStyle;rounded=0;orthogonalLoop=1;jettySize=auto;html=1;entryX=0.5;entryY=0;entryDx=0;entryDy=0;" edge="1" parent="1" source="8R3iqe2GSW00OIemZqo--189" target="8R3iqe2GSW00OIemZqo--192">
          <mxGeometry relative="1" as="geometry">
            <Array as="points">
              <mxPoint x="640" y="1120" />
              <mxPoint x="640" y="1040" />
              <mxPoint x="440" y="1040" />
            </Array>
          </mxGeometry>
        </mxCell>
        <mxCell id="8R3iqe2GSW00OIemZqo--189" value="check database tabel" style="text;html=1;strokeColor=none;fillColor=none;align=center;verticalAlign=middle;whiteSpace=wrap;rounded=0;" vertex="1" parent="1">
          <mxGeometry x="707.5" y="1105" width="85" height="30" as="geometry" />
        </mxCell>
        <mxCell id="8R3iqe2GSW00OIemZqo--197" style="edgeStyle=orthogonalEdgeStyle;rounded=0;orthogonalLoop=1;jettySize=auto;html=1;exitX=0;exitY=0.5;exitDx=0;exitDy=0;entryX=0.5;entryY=0;entryDx=0;entryDy=0;" edge="1" parent="1" source="8R3iqe2GSW00OIemZqo--192" target="8R3iqe2GSW00OIemZqo--193">
          <mxGeometry relative="1" as="geometry" />
        </mxCell>
        <mxCell id="8R3iqe2GSW00OIemZqo--192" value="" style="rhombus;whiteSpace=wrap;html=1;" vertex="1" parent="1">
          <mxGeometry x="400" y="1050" width="80" height="80" as="geometry" />
        </mxCell>
        <mxCell id="8R3iqe2GSW00OIemZqo--193" value="" style="shape=parallelogram;perimeter=parallelogramPerimeter;whiteSpace=wrap;html=1;fixedSize=1;" vertex="1" parent="1">
          <mxGeometry x="237.5" y="1135" width="120" height="60" as="geometry" />
        </mxCell>
        <mxCell id="8R3iqe2GSW00OIemZqo--196" style="edgeStyle=orthogonalEdgeStyle;rounded=0;orthogonalLoop=1;jettySize=auto;html=1;entryX=0.558;entryY=-0.1;entryDx=0;entryDy=0;entryPerimeter=0;" edge="1" parent="1" source="8R3iqe2GSW00OIemZqo--192" target="8R3iqe2GSW00OIemZqo--99">
          <mxGeometry relative="1" as="geometry" />
        </mxCell>
        <mxCell id="8R3iqe2GSW00OIemZqo--198" value="file terenkripsi" style="text;html=1;strokeColor=none;fillColor=none;align=center;verticalAlign=middle;whiteSpace=wrap;rounded=0;" vertex="1" parent="1">
          <mxGeometry x="400" y="1075" width="85" height="30" as="geometry" />
        </mxCell>
        <mxCell id="8R3iqe2GSW00OIemZqo--199" value="true" style="text;html=1;strokeColor=none;fillColor=none;align=center;verticalAlign=middle;whiteSpace=wrap;rounded=0;" vertex="1" parent="1">
          <mxGeometry x="487.5" y="1060" width="85" height="30" as="geometry" />
        </mxCell>
        <mxCell id="8R3iqe2GSW00OIemZqo--200" value="false" style="text;html=1;strokeColor=none;fillColor=none;align=center;verticalAlign=middle;whiteSpace=wrap;rounded=0;" vertex="1" parent="1">
          <mxGeometry x="305" y="1050" width="85" height="30" as="geometry" />
        </mxCell>
        <mxCell id="8R3iqe2GSW00OIemZqo--201" value="pesan gagak enkripsi&amp;nbsp;" style="text;html=1;strokeColor=none;fillColor=none;align=center;verticalAlign=middle;whiteSpace=wrap;rounded=0;" vertex="1" parent="1">
          <mxGeometry x="257.5" y="1155" width="85" height="30" as="geometry" />
        </mxCell>
        <mxCell id="8R3iqe2GSW00OIemZqo--202" value="pesan berhasil enkripsi&amp;nbsp;" style="text;html=1;strokeColor=none;fillColor=none;align=center;verticalAlign=middle;whiteSpace=wrap;rounded=0;" vertex="1" parent="1">
          <mxGeometry x="527.5" y="1155" width="85" height="30" as="geometry" />
        </mxCell>
      </root>
    </mxGraphModel>
  </diagram>
</mxfile>
